<?xml version="1.0" encoding="UTF-8" standalone="no"?>
<svg
   width="100%"
   height="100%"
   viewBox="0 0 456 125"
   version="1.1"
   xml:space="preserve"
   style="fill-rule:evenodd;clip-rule:evenodd;stroke-linejoin:round;stroke-miterlimit:2;"
   id="svg30"
   sodipodi:docname="Logo-alt.svg"
   inkscape:version="1.4.4 (dcaf3e7, 2026-05-05)"
   xmlns:inkscape="http://www.inkscape.org/namespaces/inkscape"
   xmlns:sodipodi="http://sodipodi.sourceforge.net/DTD/sodipodi-0.dtd"
   xmlns="http://www.w3.org/2000/svg"
   xmlns:svg="http://www.w3.org/2000/svg"><defs
   id="defs30" /><sodipodi:namedview
   id="namedview30"
   pagecolor="#ffffff"
   bordercolor="#000000"
   borderopacity="0.25"
   inkscape:showpageshadow="2"
   inkscape:pageopacity="0.0"
   inkscape:pagecheckerboard="0"
   inkscape:deskcolor="#d1d1d1"
   inkscape:zoom="9.336"
   inkscape:cx="227.98843"
   inkscape:cy="62.5"
   inkscape:window-width="5120"
   inkscape:window-height="1369"
   inkscape:window-x="-8"
   inkscape:window-y="-8"
   inkscape:window-maximized="1"
   inkscape:current-layer="g28" />
    <g
   transform="matrix(1,0,0,1,-14.7941,-13.2659)"
   id="g30">
        <g
   transform="matrix(6.12323e-17,-1,1,6.12323e-17,0,649.606)"
   id="g29">
            <g
   transform="matrix(1,0,0,1,94.9318,-86.0539)"
   id="g28">
                <g
   id="g4"
   style="stroke:none;stroke-opacity:1;fill:#ffffff;fill-opacity:1">
                    <g
   transform="matrix(6.12323e-17,1,-17.6532,1.08095e-15,2407.69,105.521)"
   id="g1"
   style="stroke:none;stroke-opacity:1;fill:#ffffff;fill-opacity:1">
                        <path
   d="M103.811,105.719L73.567,112.793L48.002,112.793L78.245,105.719L103.811,105.719Z"
   style="fill:#ffffff;stroke:none;stroke-opacity:1;fill-opacity:1"
   id="path1" />
                    </g>
                    <g
   transform="matrix(6.12323e-17,1,-4.70554,2.88131e-16,947.285,51.5102)"
   id="g2"
   style="stroke:none;stroke-opacity:1;fill:#ffffff;fill-opacity:1">
                        <path
   d="M78.343,105.719L70.023,112.793L49.338,112.793L57.658,105.719L78.343,105.719Z"
   style="fill:#ffffff;stroke:none;stroke-opacity:1;fill-opacity:1"
   id="path2" />
                    </g>
                    <g
   transform="matrix(0.586425,5.16105e-32,0,10.5595,385.522,-1011.95)"
   id="g3"
   style="stroke:none;stroke-opacity:1;fill:#ffffff;fill-opacity:1">
                        <path
   d="M73.749,105.709L73.567,112.793L52.882,112.793L52.882,105.383L73.749,105.709Z"
   style="fill:#ffffff;stroke:none;stroke-opacity:1;fill-opacity:1"
   id="path3" />
                    </g>
                </g>
                <g
   transform="matrix(6.12323e-17,1,-17.6532,1.08095e-15,2407.69,194.558)"
   id="g5"
   style="fill:#ffffff">
                    <path
   d="M103.811,105.719L73.567,112.793L48.002,112.793L78.245,105.719L103.811,105.719Z"
   style="fill:#ffffff"
   id="path4" />
                </g>
                <g
   transform="matrix(6.12323e-17,1,-4.70554,2.88131e-16,947.285,140.547)"
   id="g6"
   style="fill:#ffffff">
                    <path
   d="M78.343,105.719L70.023,112.793L49.338,112.793L57.658,105.719L78.343,105.719Z"
   style="fill:#ffffff"
   id="path5" />
                </g>
                <g
   transform="matrix(0.586425,5.16105e-32,0,10.5595,385.522,-922.913)"
   id="g7"
   style="fill:#ffffff">
                    <path
   d="M73.749,105.709L73.567,112.793L52.882,112.793L52.882,105.383L73.749,105.709Z"
   style="fill:#ffffff"
   id="path6" />
                </g>
                <g
   transform="matrix(6.51202e-17,1.06349,-1,6.12323e-17,649.606,-19.6968)"
   id="g18"
   style="fill:#ffffff">
                    <g
   id="g17"
   style="fill:#ffffff">
                        <g
   id="g16"
   style="fill:#ffffff">
                            <g
   transform="matrix(1,0,0,1,8.94072,0)"
   id="g15"
   style="fill:#ffffff">
                                <g
   transform="matrix(1,0,0,0.921349,-6.47863,1.27676)"
   id="g14"
   style="fill:#ffffff">
                                    <g
   id="g13"
   style="fill:#ffffff">
                                        <path
   d="M341.445,116.048C340.547,120.003 339.649,123.958 338.75,127.914L329.595,127.914C326.005,143.722 322.414,159.53 318.824,175.338L303.406,175.338C306.997,159.53 310.587,143.722 314.178,127.914L305.059,127.914C305.957,123.958 306.856,120.003 307.754,116.048L341.445,116.048Z"
   style="fill:#ffffff;fill-rule:nonzero"
   id="path7" />
                                        <path
   d="M344.961,116.048L355.874,116.048C357.043,116.048 366.787,116.048 370.459,116.891C372.573,117.375 374.598,118.71 375.781,121.194C377.549,124.904 375.777,131.932 375.708,132.235C375.53,133.02 374.136,139.156 371.874,141.537C369.613,143.917 365.084,144.335 364.451,144.393C364.934,144.52 368.771,145.528 369.913,147.433C370.064,147.685 371.055,149.337 371.078,150.93C371.1,152.523 369.628,159.005 369.47,159.701C368.286,164.913 367.102,170.125 365.918,175.338L351.599,175.338C353.091,168.77 354.583,162.203 356.074,155.636C356.179,155.173 357.156,150.875 356.663,149.74C356.17,148.604 353.292,148.604 352.984,148.604C350.96,157.516 348.936,166.427 346.912,175.338L331.494,175.338C335.983,155.575 340.472,135.811 344.961,116.048ZM358.075,126.192C357.076,130.587 356.078,134.981 355.08,139.376C355.39,139.376 357.68,139.376 358.886,138.662C360.092,137.948 360.892,134.426 360.982,134.029L361.722,130.77C361.788,130.481 362.363,127.95 361.555,127.071C360.748,126.192 358.362,126.192 358.075,126.192Z"
   style="fill:#ffffff;fill-rule:nonzero"
   id="path8" />
                                        <path
   d="M411.978,116.048C410.431,135.811 408.884,155.575 407.337,175.338L391.553,175.338C392.104,171.786 392.654,168.233 393.205,164.681L387.675,164.681C386.563,168.233 385.451,171.786 384.339,175.338L368.372,175.338C375.473,155.575 382.574,135.811 389.675,116.048L411.978,116.048ZM395.152,154.171C396.328,143.557 398.297,130.381 398.456,129.305C398.265,129.83 392.434,145.698 389.879,154.171L395.152,154.171Z"
   style="fill:#ffffff;fill-rule:nonzero"
   id="path9" />
                                        <path
   d="M438.858,116.048C434.369,135.811 429.88,155.575 425.391,175.338L409.973,175.338C414.462,155.575 418.951,135.811 423.44,116.048L438.858,116.048Z"
   style="fill:#ffffff;fill-rule:nonzero"
   id="path10" />
                                        <path
   d="M460.464,116.048C456.873,131.856 453.283,147.664 449.692,163.473L459.067,163.473C458.169,167.428 457.271,171.383 456.372,175.338L431.58,175.338C436.069,155.575 440.558,135.811 445.047,116.048L460.464,116.048Z"
   style="fill:#ffffff;fill-rule:nonzero"
   id="path11" />
                                        <path
   d="M473.574,116.048L499.282,116.048C498.384,120.003 497.486,123.958 496.587,127.914L486.297,127.914C485.446,131.661 484.594,135.409 483.743,139.156L493.375,139.156C492.521,142.916 491.667,146.676 490.813,150.435L481.181,150.435C480.194,154.781 479.207,159.127 478.22,163.473L489.536,163.473C488.638,167.428 487.739,171.383 486.841,175.338L460.108,175.338C464.597,155.575 469.085,135.811 473.574,116.048Z"
   style="fill:#ffffff;fill-rule:nonzero"
   id="path12" />
                                        <path
   d="M504.739,116.048L515.652,116.048C516.821,116.048 526.565,116.048 530.237,116.891C532.351,117.375 534.375,118.71 535.559,121.194C537.327,124.905 535.555,131.933 535.486,132.235C535.308,133.02 533.914,139.156 531.652,141.537C529.39,143.917 524.862,144.335 524.229,144.393C524.712,144.52 528.548,145.528 529.691,147.433C529.842,147.685 530.833,149.337 530.855,150.93C530.878,152.523 529.406,159.005 529.248,159.701C528.064,164.913 526.88,170.125 525.696,175.338L511.377,175.338C512.869,168.77 514.361,162.203 515.852,155.636C515.957,155.173 516.934,150.875 516.441,149.74C515.948,148.604 513.07,148.604 512.762,148.604C510.738,157.516 508.714,166.427 506.69,175.338L491.272,175.338C495.761,155.575 500.25,135.811 504.739,116.048ZM517.852,126.192C516.854,130.587 515.856,134.981 514.858,139.376C515.168,139.376 517.458,139.376 518.664,138.662C519.87,137.948 520.67,134.426 520.76,134.029L521.5,130.77C521.566,130.481 522.141,127.95 521.333,127.071C520.526,126.192 518.14,126.192 517.852,126.192Z"
   style="fill:#ffffff;fill-rule:nonzero"
   id="path13" />
                                    </g>
                                </g>
                            </g>
                        </g>
                    </g>
                </g>
                <g
   transform="matrix(7.92698e-17,1.29457,-0.822641,5.03722e-17,570.222,-108.005)"
   id="g27"
   style="fill:#ffffff">
                    <g
   id="g26"
   style="fill:#ffffff">
                        <g
   id="g25"
   style="fill:#ffffff">
                            <path
   d="M344.619,116.048C341.507,135.811 338.396,155.575 335.284,175.338L321.771,175.338C320.512,166.353 319.253,157.369 317.994,148.385C316.58,157.369 315.165,166.353 313.751,175.338L300.86,175.338C303.972,155.575 307.083,135.811 310.195,116.048L323.085,116.048C324.565,124.947 326.045,133.846 327.525,142.745C328.926,133.846 330.327,124.947 331.728,116.048L344.619,116.048Z"
   style="fill:#ffffff"
   id="path18" />
                            <path
   d="M380.571,150.765C380.411,151.783 379.164,159.701 378.158,163.418C377.996,164.015 377.152,167.135 374.452,170.211C374.018,170.705 371.752,173.287 367.721,174.935C367.039,175.213 363.689,176.583 358.672,176.583C353.911,176.583 350.985,175.298 350.366,175.027C346.821,173.47 345.291,170.849 345.004,170.357C343.187,167.245 343.303,164.14 343.324,163.582C343.461,159.92 344.742,151.786 344.902,150.765L346.499,140.621C346.66,139.603 347.906,131.685 348.913,127.968C349.074,127.371 349.919,124.251 352.619,121.175C353.053,120.681 355.319,118.099 359.35,116.451C360.031,116.173 363.381,114.803 368.399,114.803C373.159,114.803 376.086,116.088 376.705,116.36C380.25,117.916 381.78,120.538 382.067,121.029C383.884,124.142 383.768,127.246 383.747,127.804C383.61,131.466 382.329,139.6 382.168,140.621L380.571,150.765ZM368.221,131.283C368.287,130.863 368.873,127.144 368.596,125.991C368.558,125.831 368.32,124.837 366.892,124.837C366.716,124.837 365.684,124.837 364.896,125.771C364.108,126.705 363.458,130.831 363.387,131.283C361.934,140.511 360.481,149.74 359.028,158.968C358.949,159.474 358.215,164.132 358.446,165.34C358.478,165.509 358.677,166.549 360.215,166.549C361.79,166.549 362.358,165.347 362.448,165.157C363.107,163.766 363.847,159.066 363.931,158.529C365.361,149.447 366.791,140.365 368.221,131.283Z"
   style="fill:#ffffff"
   id="path19" />
                            <path
   d="M391.787,116.048L402.7,116.048C403.873,116.048 413.613,116.048 417.344,116.891C417.896,117.015 421.075,117.733 422.965,121.194C424.855,124.654 423.8,131.361 423.662,132.235C423.54,133.012 422.572,139.156 420.476,141.537C418.38,143.917 413.871,144.336 413.252,144.393C413.75,144.522 417.651,145.528 418.926,147.433C420.2,149.337 420.309,150.629 420.334,150.93C420.468,152.523 419.448,159.003 419.338,159.701L416.876,175.338L402.557,175.338C403.591,168.77 404.625,162.203 405.659,155.636C405.732,155.17 406.408,150.875 405.836,149.74C405.264,148.604 402.392,148.604 402.078,148.604C400.675,157.516 399.272,166.427 397.87,175.338L382.452,175.338C385.564,155.575 388.675,135.811 391.787,116.048ZM405.607,126.192L403.531,139.376C406.131,139.376 407.027,138.823 407.288,138.662C408.444,137.948 408.999,134.421 409.061,134.029L409.574,130.77C409.62,130.476 410.018,127.95 409.149,127.071C408.28,126.192 405.899,126.192 405.607,126.192Z"
   style="fill:#ffffff"
   id="path20" />
                            <path
   d="M464.119,137.874L448.702,137.874L449.549,132.491C449.629,131.986 450.351,127.401 450.113,126.119C450.08,125.94 449.875,124.837 448.228,124.837C446.799,124.837 446.215,125.774 446.114,125.936C445.428,127.035 444.785,131.116 444.713,131.576C443.22,141.06 441.726,150.545 440.233,160.03C440.168,160.446 439.605,164.022 439.918,165.285C439.962,165.459 440.232,166.549 441.77,166.549C443.455,166.549 444.168,165.321 444.284,165.121C445.113,163.692 445.693,160.009 445.765,159.554L446.872,152.523L443.759,152.523L445.177,143.514L463.231,143.514C461.561,154.122 459.891,164.73 458.221,175.338L448.516,175.338L447.757,171.09C445.75,173.836 443.574,174.979 443.135,175.21C442.708,175.434 440.52,176.583 437.261,176.583C433.379,176.583 430.782,174.998 430.289,174.697C427.198,172.811 426.099,170.492 425.878,170.028C424.559,167.245 424.594,164.665 424.601,164.187C424.611,163.449 424.643,161.129 425.606,155.013C426.53,149.142 427.454,143.27 428.379,137.398C429.716,128.902 430.865,125.999 431.237,125.057C432.758,121.212 436.969,118.427 437.602,118.008C442.446,114.803 448.359,114.803 449.331,114.803C450.224,114.803 456.106,114.803 460.136,117.586C460.673,117.957 464.165,120.37 464.918,124.196C465.67,128.023 464.661,134.432 464.523,135.311L464.119,137.874Z"
   style="fill:#ffffff"
   id="path21" />
                            <path
   d="M473.525,116.048L500.045,116.048L498.177,127.914L487.074,127.914L485.304,139.156L496.494,139.156L494.719,150.435L483.528,150.435L481.476,163.473L492.792,163.473L490.924,175.338L464.19,175.338C467.302,155.575 470.413,135.811 473.525,116.048Z"
   style="fill:#ffffff"
   id="path22" />
                            <g
   transform="matrix(0.977835,-1.30625e-33,1.24509e-33,1.06501,9.54806,-11.8876)"
   id="g23"
   style="fill:#ffffff">
                                <path
   d="M296.602,182.845L491.097,182.845L490.509,186.581L296.014,186.581L296.602,182.845Z"
   style="fill:#ffffff"
   id="path23" />
                            </g>
                            <g
   transform="matrix(0.977835,-1.30625e-33,1.24509e-33,1.06501,9.54806,-11.8876)"
   id="g24"
   style="fill:#ffffff">
                                <path
   d="M296.602,182.845L491.097,182.845L490.509,186.581L296.014,186.581L296.602,182.845Z"
   style="fill:#ffffff"
   id="path24" />
                            </g>
                        </g>
                    </g>
                </g>
            </g>
        </g>
    </g>
</svg>
