<?xml version="1.0" encoding="UTF-8" standalone="no"?>
<!-- Created with Inkscape (http://www.inkscape.org/) -->

<svg
   width="1189mm"
   height="841mm"
   viewBox="0 0 4493.8584 3178.5828"
   version="1.1"
   id="svg1"
   inkscape:version="1.4.2 (f4327f4, 2025-05-13)"
   sodipodi:docname="Trailer Logo Final.svg"
   inkscape:export-filename="Trailer Logo Final.png"
   inkscape:export-xdpi="96"
   inkscape:export-ydpi="96"
   xmlns:inkscape="http://www.inkscape.org/namespaces/inkscape"
   xmlns:sodipodi="http://sodipodi.sourceforge.net/DTD/sodipodi-0.dtd"
   xmlns="http://www.w3.org/2000/svg"
   xmlns:svg="http://www.w3.org/2000/svg">
  <sodipodi:namedview
     id="namedview1"
     pagecolor="#ffffff"
     bordercolor="#000000"
     borderopacity="0.25"
     inkscape:showpageshadow="2"
     inkscape:pageopacity="0.0"
     inkscape:pagecheckerboard="0"
     inkscape:deskcolor="#d1d1d1"
     inkscape:document-units="mm"
     inkscape:zoom="0.44453775"
     inkscape:cx="2246.1534"
     inkscape:cy="1589.2913"
     inkscape:window-width="2880"
     inkscape:window-height="1694"
     inkscape:window-x="-11"
     inkscape:window-y="-11"
     inkscape:window-maximized="1"
     inkscape:current-layer="layer1" />
  <defs
     id="defs1">
    <clipPath
       clipPathUnits="userSpaceOnUse"
       id="clipPath101">
      <rect
         x="-649.60602"
         y="3.977687e-14"
         width="649.60632"
         height="1039.3701"
         rx="0.0"
         inkscape:label="Artboard1"
         style="fill:none;fill-opacity:1;stroke:none;stroke-opacity:1"
         id="use101"
         transform="rotate(-90)" />
    </clipPath>
    <clipPath
       clipPathUnits="userSpaceOnUse"
       id="clipPath100">
      <rect
         x="-649.60602"
         y="3.977687e-14"
         width="649.60632"
         height="1039.3701"
         rx="0.0"
         inkscape:label="Artboard1"
         style="fill:none;fill-opacity:1;stroke:none;stroke-opacity:1"
         id="use100"
         transform="rotate(-90)" />
    </clipPath>
    <inkscape:path-effect
       effect="perspective-envelope"
       up_left_point="579.1,400.941"
       up_right_point="714.21,400.941"
       down_left_point="571.3,431.441"
       down_right_point="707.11,431.441"
       id="path-effect106"
       is_visible="true"
       lpeversion="1"
       deform_type="envelope_deformation"
       horizontal_mirror="false"
       vertical_mirror="false"
       overflow_perspective="false" />
  </defs>
  <g
     inkscape:label="Lag 1"
     inkscape:groupmode="layer"
     id="layer1">
    <g
       id="g1"
       transform="matrix(10.697529,0,0,10.697529,-24079.839,-12156.687)">
      <circle
         cx="163.67744"
         cy="479.20795"
         style="fill:#151e3f;fill-opacity:1;stroke:none;stroke-opacity:1"
         id="ellipse10"
         r="19.44681"
         clip-path="url(#clipPath101)"
         transform="translate(2278.5979,875.27486)" />
      <circle
         cx="119.07895"
         cy="479.20795"
         style="fill:#151e3f;fill-opacity:1;stroke:none;stroke-opacity:1"
         id="ellipse11"
         r="19.44681"
         clip-path="url(#clipPath100)"
         transform="translate(2276.0011,875.28056)" />
      <path
         style="fill:none;stroke:#151e3f;stroke-width:7;stroke-linecap:round;stroke-linejoin:round;stroke-dasharray:none;stroke-opacity:1"
         d="m 2268.5,1200.0999 273.4956,-0.5999 52.4808,74.844 -2.6638,75.9906 -120.8601,-0.2274 -11.8577,-20.9125 h -79.5166 l -13.0202,21.1424 H 2268.5 Z"
         id="path101"
         sodipodi:nodetypes="cccccscccc" />
      <path
         style="fill:#151e3f;fill-opacity:1;stroke:none;stroke-width:5.533;stroke-linecap:round;stroke-linejoin:round;stroke-dasharray:none;stroke-opacity:1"
         d="m 2657.0279,1323.6261 -51.598,0.254 -5.835,23.675 -14.3602,10e-5 v 6.304 l 21.5372,0.049 4.792,-17.361 z"
         id="path102"
         sodipodi:nodetypes="cccccccc" />
      <path
         d="m 2354.9189,1244.5266 -16.887,69.723 h -14.274 l 16.887,-69.723 z"
         style="fill:#151e3f;fill-opacity:1;stroke:none;stroke-opacity:1"
         id="path13" />
      <path
         d="m 2310.5419,1295.6646 -4.646,18.585 h -11.549 l 4.646,-18.585 z"
         style="fill:#151e3f;fill-opacity:1;stroke:none;stroke-opacity:1"
         id="path14" />
      <g
         style="fill:#151e3f;fill-opacity:1;stroke:none;stroke-opacity:1"
         id="g17"
         transform="translate(1840.0519,843.58563)">
        <path
           d="m 564.581,400.941 -16.887,69.723 H 533.42 l 16.886,-69.723 z"
           style="opacity:1;fill:#151e3f;fill-opacity:1;stroke:none;stroke-opacity:1"
           id="path15" />
        <path
           d="m 520.204,452.079 -4.646,18.585 h -11.549 l 4.645,-18.585 z"
           style="opacity:1;fill:#151e3f;fill-opacity:1;stroke:none;stroke-opacity:1"
           id="path16" />
        <path
           d="m 505.928,463.832 41.766,0.06 v 6.772 h -43.685 z"
           style="opacity:1;fill:#151e3f;fill-opacity:1;stroke:none;stroke-opacity:1"
           id="path17" />
      </g>
      <g
         style="fill:#151e3f;fill-opacity:1;stroke:none;stroke-opacity:1"
         id="g27"
         inkscape:path-effect="#path-effect106"
         transform="translate(1830.2994,843.91071)">
        <path
           d="m 598.77099,400.941 -1.54037,6.103 h -5.35052 l -6.17986,24.397 h -9.04833 l 6.21717,-24.397 h -5.32985 L 579.1,400.941 Z"
           style="opacity:1;fill:#151e3f;fill-opacity:1;stroke:none;stroke-opacity:1"
           id="path21"
           inkscape:original-d="m 591.202,400.941 v 6.103 h -5.436 v 24.397 h -9.155 v -24.397 h -5.415 v -6.103 z" />
        <path
           d="m 600.82403,400.941 h 6.37149 c 4.24766,0 7.08771,0.144 8.51904,0.433 1.43246,0.289 2.47396,1.027 3.12688,2.213 0.65306,1.187 0.65639,3.081 0.0102,5.68 -0.59026,2.374 -1.32183,3.969 -2.19709,4.786 -0.8742,0.816 -2.31794,1.306 -4.33092,1.469 1.69013,0.389 2.75983,0.911 3.21249,1.564 0.4518,0.653 0.68517,1.253 0.6993,1.799 0.0141,0.546 -0.28484,2.05 -0.89697,4.512 l -2.00001,8.044 h -8.40294 l 2.53429,-10.135 c 0.40834,-1.633 0.5142,-2.644 0.31859,-3.033 -0.19532,-0.39 -0.91492,-0.584 -2.15931,-0.584 l -3.44514,13.752 h -9.04734 z m 7.6935,5.218 -1.69901,6.782 c 1.01481,0 1.75571,-0.122 2.22391,-0.367 0.46815,-0.245 0.87087,-1.04 1.2067,-2.383 l 0.41934,-1.677 c 0.2418,-0.967 0.20446,-1.601 -0.11271,-1.903 -0.31738,-0.301 -0.99604,-0.452 -2.03823,-0.452 z"
           style="opacity:1;fill:#151e3f;fill-opacity:1;stroke:none;stroke-opacity:1"
           id="path22"
           inkscape:original-d="m 593.29,400.941 h 6.48 c 4.32,0 7.245,0.144 8.774,0.433 1.53,0.289 2.776,1.027 3.74,2.213 0.964,1.187 1.446,3.081 1.446,5.68 0,2.374 -0.34,3.969 -1.022,4.786 -0.681,0.816 -2.022,1.306 -4.023,1.469 1.813,0.389 3.03,0.911 3.654,1.564 0.623,0.653 1.011,1.253 1.163,1.799 0.152,0.546 0.228,2.05 0.228,4.512 v 8.044 h -8.502 v -10.135 c 0,-1.633 -0.149,-2.644 -0.446,-3.033 -0.297,-0.39 -1.076,-0.584 -2.338,-0.584 v 13.752 h -9.154 z m 9.154,5.218 v 6.782 c 1.03,0 1.751,-0.122 2.164,-0.367 0.413,-0.245 0.62,-1.04 0.62,-2.383 v -1.677 c 0,-0.967 -0.199,-1.601 -0.598,-1.903 -0.399,-0.301 -1.127,-0.452 -2.186,-0.452 z" />
        <path
           d="m 639.95166,400.941 -2.30479,30.5 h -9.2638 l 0.89881,-5.482 h -3.24273 l -1.88917,5.482 h -9.37153 l 12.15197,-30.5 z m -9.59624,19.611 c 0.39293,-3.454 0.98595,-7.718 1.77925,-12.792 -2.35069,5.828 -3.97411,10.092 -4.86906,12.792 z"
           style="opacity:1;fill:#151e3f;fill-opacity:1;stroke:none;stroke-opacity:1"
           id="path23"
           inkscape:original-d="m 633.084,400.941 5.241,30.5 h -9.373 l -0.456,-5.482 h -3.284 l -0.543,5.482 h -9.482 l 4.654,-30.5 z m -4.849,19.611 c -0.464,-3.454 -0.928,-7.718 -1.392,-12.792 -0.928,5.828 -1.508,10.092 -1.74,12.792 z" />
        <path
           d="m 655.64539,400.941 -7.40342,30.5 h -9.04735 l 7.45006,-30.5 z"
           style="opacity:1;fill:#151e3f;fill-opacity:1;stroke:none;stroke-opacity:1"
           id="path24"
           inkscape:original-d="m 649.045,400.941 v 30.5 h -9.154 v -30.5 z" />
        <path
           d="m 668.26055,400.941 -5.86949,24.396 h 5.49646 l -1.4629,6.104 h -14.54948 l 7.38469,-30.5 z"
           style="opacity:1;fill:#151e3f;fill-opacity:1;stroke:none;stroke-opacity:1"
           id="path25"
           inkscape:original-d="m 661.875,400.941 v 24.396 h 5.567 v 6.104 h -14.721 v -30.5 z" />
        <path
           d="m 675.91518,400.941 h 15.01037 l -1.44484,6.103 h -6.0149 l -1.37522,5.784 h 5.63459 l -1.3742,5.803 h -5.64013 l -1.59443,6.706 h 6.63485 l -1.44445,6.104 h -15.69004 z"
           style="opacity:1;fill:#151e3f;fill-opacity:1;stroke:none;stroke-opacity:1"
           id="path26"
           inkscape:original-d="m 669.66,400.941 h 15.266 v 6.103 h -6.111 v 5.784 h 5.719 v 5.803 h -5.719 v 6.706 h 6.72 v 6.104 H 669.66 Z" />
        <path
           d="m 694.11129,400.941 h 6.37149 c 4.24766,0 7.09,0.144 8.52689,0.433 1.43605,0.289 2.49023,1.027 3.16195,2.213 0.67187,1.187 0.70521,3.081 0.1002,5.68 -0.55264,2.374 -1.25992,3.969 -2.12125,4.786 -0.86127,0.816 -2.29725,1.306 -4.30764,1.469 1.6953,0.389 2.77426,0.911 3.23628,1.564 0.46314,0.653 0.70504,1.253 0.7288,1.799 0.0228,0.546 -0.25235,2.05 -0.82547,4.512 l -1.87254,8.044 h -8.40393 l 2.37369,-10.135 c 0.38246,-1.633 0.47328,-2.644 0.27151,-3.033 -0.20248,-0.39 -0.92516,-0.584 -2.16857,-0.584 l -3.2272,13.752 h -9.04834 z m 7.77718,5.218 -1.59154,6.782 c 1.01383,0 1.75279,-0.122 2.21809,-0.367 0.46427,-0.245 0.85341,-1.04 1.16795,-2.383 l 0.39277,-1.677 c 0.22647,-0.967 0.1791,-1.601 -0.14286,-1.903 -0.32117,-0.301 -1.0032,-0.452 -2.04441,-0.452 z"
           style="opacity:1;fill:#151e3f;fill-opacity:1;stroke:none;stroke-opacity:1"
           id="path27"
           inkscape:original-d="m 688.166,400.941 h 6.48 c 4.32,0 7.245,0.144 8.775,0.433 1.529,0.289 2.776,1.027 3.74,2.213 0.964,1.187 1.446,3.081 1.446,5.68 0,2.374 -0.341,3.969 -1.022,4.786 -0.681,0.816 -2.022,1.306 -4.023,1.469 1.812,0.389 3.03,0.911 3.653,1.564 0.624,0.653 1.011,1.253 1.164,1.799 0.152,0.546 0.228,2.05 0.228,4.512 v 8.044 h -8.503 v -10.135 c 0,-1.633 -0.148,-2.644 -0.445,-3.033 -0.298,-0.39 -1.077,-0.584 -2.338,-0.584 v 13.752 h -9.155 z m 9.155,5.218 v 6.782 c 1.029,0 1.75,-0.122 2.164,-0.367 0.413,-0.245 0.619,-1.04 0.619,-2.383 v -1.677 c 0,-0.967 -0.199,-1.601 -0.598,-1.903 -0.398,-0.301 -1.127,-0.452 -2.185,-0.452 z" />
      </g>
      <g
         style="fill:#151e3f;fill-opacity:1;stroke:none;stroke-opacity:1"
         id="g36"
         transform="translate(1840.0519,843.58563)">
        <g
           style="opacity:1;fill:#151e3f;fill-opacity:1;stroke:none;stroke-opacity:1"
           id="g35">
          <g
             style="opacity:1;fill:#151e3f;fill-opacity:1;stroke:none;stroke-opacity:1"
             id="g34">
            <path
               d="m 586.782,438.156 c -2.25,9.078 -4.499,18.155 -6.748,27.233 h -9.767 c -0.91,-4.127 -1.82,-8.254 -2.73,-12.38 -1.023,4.126 -2.045,8.253 -3.067,12.38 h -9.318 c 2.249,-9.078 4.498,-18.155 6.747,-27.233 h 9.318 c 1.069,4.087 2.139,8.175 3.209,12.262 1.012,-4.087 2.025,-8.175 3.038,-12.262 z"
               style="opacity:1;fill:#151e3f;fill-opacity:1;stroke:none;stroke-opacity:1"
               id="path28" />
            <path
               d="m 612.769,454.102 c -0.116,0.468 -1.017,4.104 -1.744,5.812 -0.117,0.274 -0.728,1.707 -2.679,3.12 -0.314,0.227 -1.952,1.413 -4.866,2.17 -0.492,0.128 -2.914,0.757 -6.54,0.757 -3.441,0 -5.557,-0.59 -6.004,-0.715 -2.563,-0.715 -3.669,-1.919 -3.876,-2.145 -1.313,-1.43 -1.229,-2.855 -1.214,-3.112 0.099,-1.682 1.024,-5.418 1.141,-5.887 l 1.154,-4.659 c 0.116,-0.468 1.017,-4.105 1.744,-5.812 0.117,-0.274 0.728,-1.707 2.679,-3.12 0.314,-0.227 1.952,-1.413 4.866,-2.17 0.492,-0.128 2.914,-0.757 6.54,-0.757 3.442,0 5.557,0.59 6.004,0.715 2.563,0.715 3.669,1.919 3.876,2.145 1.314,1.429 1.23,2.855 1.214,3.111 -0.099,1.682 -1.024,5.419 -1.141,5.888 z m -8.927,-8.949 c 0.048,-0.192 0.471,-1.9 0.271,-2.43 -0.027,-0.074 -0.199,-0.53 -1.232,-0.53 -0.127,0 -0.873,0 -1.443,0.429 -0.569,0.429 -1.039,2.324 -1.09,2.531 -1.05,4.239 -2.101,8.478 -3.151,12.717 -0.057,0.232 -0.587,2.372 -0.42,2.927 0.023,0.077 0.166,0.555 1.278,0.555 1.138,0 1.549,-0.552 1.614,-0.639 0.476,-0.639 1.011,-2.798 1.072,-3.045 1.034,-4.171 2.067,-8.343 3.101,-12.515 z"
               style="opacity:1;fill:#151e3f;fill-opacity:1;stroke:none;stroke-opacity:1"
               id="path29" />
            <path
               d="m 620.876,438.156 h 7.888 c 0.848,0 7.888,0 10.585,0.387 0.399,0.057 2.697,0.387 4.063,1.976 1.367,1.59 0.604,4.67 0.504,5.072 -0.088,0.357 -0.787,3.179 -2.302,4.272 -1.515,1.094 -4.775,1.286 -5.223,1.312 0.361,0.059 3.18,0.522 4.102,1.396 0.921,0.875 0.999,1.469 1.018,1.607 0.096,0.731 -0.641,3.708 -0.72,4.028 l -1.78,7.183 h -10.35 c 0.747,-3.017 1.495,-6.033 2.242,-9.05 0.053,-0.214 0.542,-2.186 0.128,-2.708 -0.413,-0.521 -2.489,-0.521 -2.716,-0.521 -1.014,4.093 -2.028,8.186 -3.042,12.279 h -11.144 c 2.249,-9.078 4.498,-18.155 6.747,-27.233 z m 9.99,4.659 -1.501,6.056 c 1.88,0 2.527,-0.254 2.715,-0.328 0.836,-0.328 1.237,-1.948 1.282,-2.128 l 0.371,-1.497 c 0.033,-0.135 0.321,-1.295 -0.307,-1.699 -0.628,-0.404 -2.349,-0.404 -2.56,-0.404 z"
               style="opacity:1;fill:#151e3f;fill-opacity:1;stroke:none;stroke-opacity:1"
               id="path30" />
            <path
               d="m 673.16,448.181 h -11.144 l 0.612,-2.473 c 0.058,-0.232 0.58,-2.338 0.408,-2.926 -0.024,-0.083 -0.172,-0.589 -1.363,-0.589 -1.033,0 -1.455,0.43 -1.528,0.505 -0.496,0.504 -0.96,2.379 -1.013,2.59 -1.079,4.357 -2.158,8.713 -3.238,13.07 -0.047,0.191 -0.454,1.833 -0.227,2.414 0.031,0.08 0.227,0.58 1.338,0.58 1.218,0 1.733,-0.564 1.817,-0.656 0.6,-0.656 1.019,-2.348 1.071,-2.557 l 0.8,-3.23 h -2.25 l 1.025,-4.137 c 4.35,0 8.7,0 13.05,0 -1.207,4.872 -2.414,9.744 -3.622,14.617 h -7.014 l -0.549,-1.951 c -1.451,1.261 -3.024,1.786 -3.341,1.892 -0.309,0.103 -1.89,0.631 -4.246,0.631 -2.806,0 -4.683,-0.728 -5.04,-0.866 -2.234,-0.867 -3.029,-1.932 -3.188,-2.145 -0.954,-1.279 -0.928,-2.463 -0.923,-2.683 0.007,-0.339 0.03,-1.405 0.726,-4.214 0.668,-2.697 1.336,-5.394 2.005,-8.091 0.967,-3.902 1.796,-5.235 2.066,-5.668 1.099,-1.766 4.143,-3.046 4.601,-3.238 3.501,-1.472 7.774,-1.472 8.478,-1.472 0.645,0 4.897,0 7.809,1.278 0.389,0.171 2.913,1.279 3.457,3.037 0.544,1.757 -0.185,4.701 -0.285,5.105 z"
               style="opacity:1;fill:#151e3f;fill-opacity:1;stroke:none;stroke-opacity:1"
               id="path31" />
            <path
               d="m 679.958,438.156 c 6.195,0 12.975,0 19.17,0 l -1.351,5.45 h -8.025 l -1.279,5.164 h 8.088 l -1.283,5.181 h -8.089 l -1.483,5.988 h 8.179 l -1.35,5.45 c -6.441,0 -12.883,0 -19.324,0 2.249,-9.078 4.498,-18.155 6.747,-27.233 z"
               style="opacity:1;fill:#151e3f;fill-opacity:1;stroke:none;stroke-opacity:1"
               id="path32" />
            <path
               d="m 554.223,468.837 c 45.824,0 91.647,0 137.47,0 l -0.415,1.827 c -25.671,0 -51.341,0 -77.011,0 -20.153,0 -40.306,0 -60.459,0 z"
               style="opacity:1;fill:#151e3f;fill-opacity:1;stroke:none;stroke-opacity:1"
               id="path33" />
            <path
               d="m 554.223,468.837 c 45.824,0 91.647,0 137.47,0 l -0.415,1.827 c -25.671,0 -51.341,0 -77.011,0 -20.153,0 -40.306,0 -60.459,0 z"
               style="opacity:1;fill:#151e3f;fill-opacity:1;stroke:none;stroke-opacity:1"
               id="path34" />
          </g>
        </g>
      </g>
      <path
         d="m 2296.2659,1307.4176 41.766,0.06 v 6.772 h -43.685 z"
         style="fill:#151e3f;fill-opacity:1;stroke:none;stroke-opacity:1"
         id="path37" />
    </g>
  </g>
</svg>
