<?xml version="1.0" encoding="UTF-8" standalone="no"?>
<!DOCTYPE svg PUBLIC "-//W3C//DTD SVG 1.1//EN" "http://www.w3.org/Graphics/SVG/1.1/DTD/svg11.dtd">
<svg width="100%" height="100%" viewBox="0 0 320 187" version="1.1" xmlns="http://www.w3.org/2000/svg" xmlns:xlink="http://www.w3.org/1999/xlink" xml:space="preserve" xmlns:serif="http://www.serif.com/" style="fill-rule:evenodd;clip-rule:evenodd;stroke-linejoin:round;stroke-miterlimit:2;">
    <g transform="matrix(1,0,0,1,-82.715,-311.866)">
        <g transform="matrix(6.12323e-17,-1,1,6.12323e-17,0,649.606)">
            <g transform="matrix(2.16998e-17,0.354385,-0.354385,2.16998e-17,304.781,118.311)">
                <circle cx="128.014" cy="379.2" r="54.875" style="fill:rgb(21,30,63);"/>
            </g>
            <g transform="matrix(2.16998e-17,0.354385,-0.354385,2.16998e-17,304.781,73.7125)">
                <circle cx="128.014" cy="379.2" r="54.875" style="fill:rgb(21,30,63);"/>
            </g>
            <g transform="matrix(6.12323e-17,1,-1,6.12323e-17,712.79,-90.2528)">
                <path d="M434.665,524.776L277.398,526.702L259.618,517.026L230.766,518.37L205.338,517.001L195.764,520.366L191.336,524.593L178.799,526.414L174.28,524.329L174.28,375.65L470.581,375.049L434.665,524.776Z" style="fill:rgb(21,30,63);"/>
            </g>
            <g transform="matrix(6.12323e-17,1,-1,6.12323e-17,712.79,-90.2528)">
                <path d="M492.596,498.986L447.132,511.907L442.34,529.268L276.861,528.892C276.861,528.892 278.72,532.793 278.923,537.679L276.831,537.679C276.831,537.679 272.647,517.963 254.033,517.963C235.419,517.963 231.328,533.662 231.376,533.908C231.423,534.155 226.96,517.982 209.044,517.982C191.128,517.982 185.885,537.791 185.885,537.791L183.868,537.776C183.868,537.776 183.798,532.787 186.1,528.884L172.968,528.884L172.968,522.87L190.892,522.87C190.892,522.87 197.352,516.596 203.899,515.911L258.817,515.911C258.817,515.911 267.062,517.226 271.914,522.917L435.163,522.915L440.998,499.24L492.596,498.986Z" style="fill:rgb(238,198,67);"/>
            </g>
        </g>
    </g>
</svg>
